<mxfile host="app.diagrams.net" modified="2024-07-21T17:51:06.784Z" agent="Mozilla/5.0 (X11; Linux x86_64; rv:109.0) Gecko/20100101 Firefox/115.0" version="24.7.1" etag="B0fWv5yuT54TBN5DsrnF" type="github">
  <diagram name="Page-1" id="K2IIP9jIDzTkW1P5PYKy">
    <mxGraphModel>
      <root>
        <mxCell id="0" />
        <mxCell id="1" parent="0" />
      </root>
    </mxGraphModel>
  </diagram>
</mxfile>
